<svg xmlns="http://www.w3.org/2000/svg" viewBox="0 0 240 64" width="240" height="64">
  <defs>
    <linearGradient id="wordmarkGrad" x1="0%" y1="0%" x2="100%" y2="100%">
      <stop offset="0%" stop-color="#3B82F6"/>
      <stop offset="100%" stop-color="#8B5CF6"/>
    </linearGradient>
  </defs>

  <!-- Icon (scaled down) -->
  <g transform="translate(4, 4)">
    <!-- Four phase arcs -->
    <path d="M28 2 A26 26 0 0 1 54 28" fill="none" stroke="#3B82F6" stroke-width="4" stroke-linecap="round"/>
    <path d="M54 28 A26 26 0 0 1 28 54" fill="none" stroke="#6366F1" stroke-width="4" stroke-linecap="round"/>
    <path d="M28 54 A26 26 0 0 1 2 28" fill="none" stroke="#8B5CF6" stroke-width="4" stroke-linecap="round"/>
    <path d="M2 28 A26 26 0 0 1 28 2" fill="none" stroke="#A855F7" stroke-width="4" stroke-linecap="round"/>

    <!-- Phase dots -->
    <circle cx="28" cy="2" r="2" fill="#3B82F6"/>
    <circle cx="54" cy="28" r="2" fill="#6366F1"/>
    <circle cx="28" cy="54" r="2" fill="#8B5CF6"/>
    <circle cx="2" cy="28" r="2" fill="#A855F7"/>

    <!-- Shield -->
    <path d="M28 12 L40 17 L40 28 C40 36 35 42 28 45 C21 42 16 36 16 28 L16 17 Z" fill="url(#wordmarkGrad)"/>
    <path d="M22 27 L26 31 L34 23" fill="none" stroke="white" stroke-width="2" stroke-linecap="round" stroke-linejoin="round"/>
  </g>

  <!-- Text: govctl -->
  <text x="76" y="42" font-family="-apple-system, BlinkMacSystemFont, 'Segoe UI', Roboto, sans-serif" font-size="28" font-weight="600" fill="#1F2937">
    <tspan fill="#3B82F6">gov</tspan><tspan fill="#6366F1">ctl</tspan>
  </text>
</svg>
